<svg width="32" height="32" viewBox="0 0 32 32" fill="none" xmlns="http://www.w3.org/2000/svg">
<path fill-rule="evenodd" clip-rule="evenodd" d="M8.27557 0.25H23.7244C27.1152 0.25 27.9915 0.601828 28.8383 1.0547C29.7525 1.54359 30.4564 2.24756 30.9453 3.16172C31.3982 4.00849 31.75 4.88482 31.75 8.27557V8.80958C31.75 9.05515 31.5531 9.25504 31.3078 9.26543C31.2323 9.26863 31.156 9.27227 31.0791 9.27633C29.0271 9.38441 27.434 11.3429 27.3296 13.7407C27.3175 14.0181 27.3062 14.2473 27.2962 14.4509L27.296 14.4533L27.296 14.4545C27.2683 15.0175 27.25 15.3884 27.25 16.0635C27.25 16.7665 27.2698 17.2044 27.2995 17.8603C27.3055 17.994 27.312 18.1367 27.3188 18.2927C27.4224 20.6758 29.0121 22.6125 31.0515 22.7222C31.1377 22.7268 31.2233 22.731 31.3078 22.7346C31.5531 22.745 31.75 22.9448 31.75 23.1904V23.7244C31.75 27.1152 31.3982 27.9915 30.9453 28.8383C30.4564 29.7525 29.7525 30.4564 28.8383 30.9453C27.9915 31.3982 27.1152 31.75 23.7244 31.75H8.27557C4.88482 31.75 4.00849 31.3982 3.16172 30.9453C2.24756 30.4564 1.54359 29.7525 1.0547 28.8383C0.601828 27.9915 0.25 27.1152 0.25 23.7244V23.1904C0.25 22.9448 0.446853 22.745 0.69217 22.7346C0.788614 22.7305 0.886372 22.7257 0.984967 22.7202C3.00764 22.6084 4.58863 20.7002 4.68695 18.3362C4.692 18.2149 4.69686 18.1015 4.70145 17.9939L4.70167 17.9884C4.73069 17.309 4.75 16.8574 4.75 16.0635C4.75 15.2589 4.73231 14.8704 4.70531 14.278C4.69735 14.1033 4.68857 13.9108 4.67921 13.6846C4.58103 11.3114 2.99837 9.38972 0.967831 9.27884C0.875041 9.2738 0.783025 9.2693 0.692179 9.26543C0.446861 9.25504 0.25 9.05515 0.25 8.80958V8.27557C0.25 4.88482 0.601828 4.00849 1.0547 3.16172C1.54359 2.24756 2.24756 1.54359 3.16172 1.0547C4.00849 0.601828 4.88482 0.25 8.27557 0.25ZM14.6099 5.95384C10.6037 6.13019 7.57847 9.40867 7.383 13.3016C7.3038 14.8794 7.24003 16.3252 7.24003 17.6799C7.24003 18.9461 7.29569 20.2051 7.36733 21.6147C7.56461 25.4978 10.591 28.7458 14.5744 28.9244C15.0646 28.9464 15.5484 28.9599 16 28.9599C16.4657 28.9599 16.9657 28.9456 17.4719 28.9223C21.4262 28.7409 24.4514 25.5308 24.6423 21.6582C24.7094 20.2968 24.7601 19.0562 24.7601 17.6799C24.7601 16.1481 24.704 14.7404 24.6312 13.2445C24.4426 9.36556 21.4188 6.13663 17.4503 5.95654C16.9516 5.9339 16.4591 5.91995 16 5.91995C15.5593 5.91995 15.0879 5.93278 14.6099 5.95384Z" fill="white"/>
</svg>
