<?xml version="1.0" encoding="UTF-8" standalone="no"?>
<!DOCTYPE svg PUBLIC "-//W3C//DTD SVG 1.1//EN" "http://www.w3.org/Graphics/SVG/1.1/DTD/svg11.dtd">
<svg viewBox="0 0 51 34" fill="none" xmlns="http://www.w3.org/2000/svg">
	<g clip-path="url(#a)" fill-rule="evenodd" clip-rule="evenodd">
		<path d="M37.5 21.6a2.51 2.51 0 0 0-3.13-2.44 3.77 3.77 0 0 0-3.08 3.54 2.51 2.51 0 0 0 3.12 2.43 3.76 3.76 0 0 0 3.09-3.53zm-3.86 6.26a2.1 2.1 0 0 0-2.61-2 3.14 3.14 0 0 0-2.57 2.94 2.09 2.09 0 0 0 2.61 2 3.13 3.13 0 0 0 2.57-2.94zm-6.29 2.73A1.66 1.66 0 0 0 25.27 29a2.5 2.5 0 0 0-2.06 2.35 1.66 1.66 0 0 0 2.08 1.62 2.5 2.5 0 0 0 2.06-2.35v-.03zM22 30a1.25 1.25 0 0 0-1.56-1.22 1.87 1.87 0 0 0-1.54 1.77 1.239 1.239 0 0 0 1.56 1.21A1.87 1.87 0 0 0 22 30zm-3.52-2.52a.831.831 0 0 0-1-.81 1.26 1.26 0 0 0-1 1.18.84.84 0 0 0 1.05.81 1.24 1.24 0 0 0 1-1.18h-.05zm-4.39-8.55a2.498 2.498 0 0 0 3.25 2.26 3.76 3.76 0 0 0 2.89-3.69A2.51 2.51 0 0 0 17 15.24a3.75 3.75 0 0 0-2.88 3.69h-.03zm3.5-6.46a2.092 2.092 0 0 0 2.72 1.88 3.12 3.12 0 0 0 2.4-3.07A2.09 2.09 0 0 0 20 9.39a3.15 3.15 0 0 0-2.41 3.08zm6.14-3.07a1.67 1.67 0 0 0 2.17 1.51 2.51 2.51 0 0 0 1.92-2.47 1.67 1.67 0 0 0-2.17-1.5 2.49 2.49 0 0 0-1.92 2.46zm5.35.27a1.25 1.25 0 0 0 1.62 1.13A1.89 1.89 0 0 0 32.15 9a1.26 1.26 0 0 0-1.63-1.13 1.87 1.87 0 0 0-1.44 1.85v-.05zM32.75 12a.84.84 0 0 0 1.09.75 1.26 1.26 0 0 0 1-1.23.83.83 0 0 0-1.09-.75 1.26 1.26 0 0 0-1 1.23z" fill="#153B6B"/>
		<path d="M27.185 18.103C17.778 22.983 8.37 25.727 0 26.353c8.207 1.655 18.344.086 28.3-5.077C38.257 16.114 46.206 8.318 50.88 0a83.648 83.648 0 0 1-23.695 18.103z" fill="url(#b)"/>
	</g>
	<defs>
		<linearGradient id="b" x1="0" y1="13.49" x2="50.88" y2="13.49" gradientUnits="userSpaceOnUse">
			<stop stop-color="#23416A"/>
			<stop offset=".52" stop-color="#23416A"/>
			<stop offset=".57" stop-color="#27416A"/>
			<stop offset=".63" stop-color="#35406B"/>
			<stop offset=".69" stop-color="#4A3F6D"/>
			<stop offset=".75" stop-color="#693D6F"/>
			<stop offset=".81" stop-color="#903B71"/>
			<stop offset=".88" stop-color="#C03875"/>
			<stop offset=".92" stop-color="#E33677"/>
		</linearGradient>
		<clipPath id="a">
			<path fill="#fff" d="M0 0h132v32.98H0z"/>
		</clipPath>
	</defs>
</svg>